# xmcd CD database file
#
# Track frame offsets:
#	150
#	15635
#	26977
#	41137
#	59192
#	72715
#	82942
#	93150
#	104095
#	123582
#	136577
#	147212
#
# Disc length: 2117 seconds
#
# Revision: 2
# Processed by: cddbd v1.5.2PL0 Copyright (c) Steve Scherf et al.
# Submitted via: CDex 1.51
#
DISCID=b108430c
DTITLE=Country Gentlemen - Souvenirs
DYEAR=1995
DGENRE=Country
TTITLE0=Mountains and Memories
TTITLE1=Mother of a Miner's Child
TTITLE2=Where the Moss Grows Over the Stone
TTITLE3=Wild Rose
TTITLE4=Faded Love
TTITLE5=Drifting Away
TTITLE6=One More Hill
TTITLE7=Souvenirs
TTITLE8=Lady With the Flower in Her Hair
TTITLE9=Noah's Ride
TTITLE10=Too May Cooks in the Kitchen
TTITLE11=Hunker Down
EXTD=YEAR: 1995
EXTT0=
EXTT1=
EXTT2=
EXTT3=
EXTT4=
EXTT5=
EXTT6=
EXTT7=
EXTT8=
EXTT9=
EXTT10=
EXTT11=
PLAYORDER=
